<svg id="Слой_1" data-name="Слой 1" xmlns="http://www.w3.org/2000/svg" xmlns:xlink="http://www.w3.org/1999/xlink" viewBox="0 0 1157.58 345.45"><defs><style>.cls-1{fill:url(#Безымянный_градиент_7);}.cls-2{opacity:0.3;}.cls-3{fill:url(#Безымянный_градиент_2);}.cls-4{fill:#fff;}.cls-5{fill:none;stroke:#1e73b7;stroke-miterlimit:10;stroke-width:11px;opacity:0.17;}.cls-6{fill:#f08a00;}.cls-7{fill:#1e73b7;}</style><radialGradient id="Безымянный_градиент_7" cx="372.09" cy="517.61" r="6.14" gradientTransform="matrix(0, -22.08, -17.51, 0, 9229.69, 8410.84)" gradientUnits="userSpaceOnUse"><stop offset="0.26" stop-color="#3c91d6"/><stop offset="1" stop-color="#1e73b7"/></radialGradient><linearGradient id="Безымянный_градиент_2" x1="167.08" y1="349.74" x2="179.24" y2="172.96" gradientTransform="matrix(1, 0, 0, -1, 0, 408)" gradientUnits="userSpaceOnUse"><stop offset="0" stop-color="#edf9ff"/><stop offset="1" stop-color="#01a8ff"/></linearGradient></defs><title>Горизонтальный без подписи en</title><path class="cls-1" d="M170.3,329.56c11.43-4.88,74.31-34.38,92.4-99.92,0-.14.08-.28.11-.43C267.64,203.48,275.6,123.72,276,80a4.5,4.5,0,0,0-2.9-4.26C237,62,193.57,58.82,169.34,58.82l-1.66,0c-13.6,0-67.15,3.19-103.73,16.9A4.51,4.51,0,0,0,61.05,80c.39,42.14,8.34,123.48,13.17,149.19,0,.15.06.29.1.43,18.1,65.54,81,95,92.4,99.92A4.63,4.63,0,0,0,170.3,329.56Z" transform="translate(-26.42 -23.29)"/><g class="cls-2"><path class="cls-3" d="M167.53,58.68c-13.64,0-67.34,3.15-104,16.71-1.78.66-2.79,1.88-2.59,3.74,1.25,11.42,34.41,65.28,80.38,102.51,49.93,40.44,114.33,47.74,118.38,47.85,1.42,0,3.3-1.19,3.54-2.46,4.75-24.95,12.53-104.2,12.91-147.43a4.47,4.47,0,0,0-2.91-4.21c-36.14-13.56-79.73-16.75-104-16.75l-1.67,0Z" transform="translate(-26.42 -23.29)"/></g><path class="cls-4" d="M210.14,87a34.44,34.44,0,0,1,39.52,41.37,34.91,34.91,0,0,1-14.93,21.51,34.75,34.75,0,0,1-30.5,3.33,34.64,34.64,0,0,1-14.56-10.16,34.68,34.68,0,0,1-7.26-29.82,35,35,0,0,1,15.14-21.34A33.57,33.57,0,0,1,210.14,87Zm1,5.61a28.21,28.21,0,0,0-13.5,6.26,28.79,28.79,0,0,0-8.57,12,27.7,27.7,0,0,0-1.34,14.87,28.33,28.33,0,0,0,10.05,17.27,24.47,24.47,0,0,0,3.23,2.29,28.45,28.45,0,0,0,20,3.82,27.91,27.91,0,0,0,13.53-6.28A28.65,28.65,0,0,0,243,130.78a29,29,0,0,0-2.78-25.42,28.93,28.93,0,0,0-17.78-12.47,28.18,28.18,0,0,0-11.33-.26Zm18.67,20.64-1.28.29a2.3,2.3,0,0,1-2.56-1.18q-2.9-5.47-9.8-5.58a10.5,10.5,0,0,0-6,1.68,11.65,11.65,0,0,0-4.19,5,19.18,19.18,0,0,0-1.57,7.74q-.11,6.56,3,10.33a10.7,10.7,0,0,0,8.56,3.85,11.54,11.54,0,0,0,6.85-2.13,10.15,10.15,0,0,0,3.66-4.53,2.26,2.26,0,0,1,2.75-1.31l1.7.54a1.93,1.93,0,0,1,1.2,2.51,15.46,15.46,0,0,1-8.67,8.94,18.54,18.54,0,0,1-7.48,1.36,18.73,18.73,0,0,1-9.52-2.52,15.81,15.81,0,0,1-6.28-7.1A24.7,24.7,0,0,1,198,120.24a21.83,21.83,0,0,1,1.35-7.46,17.13,17.13,0,0,1,3.74-5.94,16.09,16.09,0,0,1,5.95-3.86,20.82,20.82,0,0,1,7.73-1.24,17.06,17.06,0,0,1,9.89,3,13.57,13.57,0,0,1,4.6,5.68,2.12,2.12,0,0,1-1.49,2.89" transform="translate(-26.42 -23.29)"/><path class="cls-5" d="M170.73,362.79c14.53-6,94.42-42.41,117.41-123.26.05-.18.09-.35.13-.54,6.14-31.73,16.25-130.14,16.73-184.06a5.56,5.56,0,0,0-3.69-5.25c-45.79-16.91-101-20.89-131.8-20.89l-2.11.05c-17.28,0-85.32,3.93-131.8,20.85a5.55,5.55,0,0,0-3.68,5.25c.49,52,10.59,152.34,16.73,184.05,0,.19.08.36.13.54,23,80.85,102.88,117.24,117.4,123.26A6,6,0,0,0,170.73,362.79Z" transform="translate(-26.42 -23.29)"/><path class="cls-6" d="M358.66,240.71a2.92,2.92,0,0,1-1.94-.78,2.6,2.6,0,0,1-.78-1.93l.26-1.17,31.13-83.31q.9-3.22,4.52-3.23h14.08a4.44,4.44,0,0,1,4.52,3.23l31.13,83.31a3.83,3.83,0,0,1,.13,1.17,2.63,2.63,0,0,1-.77,1.93,2.48,2.48,0,0,1-1.81.78H427.89a3.82,3.82,0,0,1-2.58-.78,3.47,3.47,0,0,1-1.17-1.68l-6.07-15.75H379.71l-6.07,15.75a3.75,3.75,0,0,1-3.75,2.46Zm54.89-33.07-14.72-39.91-14.6,39.91Zm43.32,33.07a3.09,3.09,0,0,1-3.1-3.1V153.52a3.45,3.45,0,0,1,.77-2.32,3.14,3.14,0,0,1,2.33-.91h9.94a3.58,3.58,0,0,1,2.33.65,5.47,5.47,0,0,1,1.42,1.42l37.2,57.87V153.52a3.41,3.41,0,0,1,.78-2.32,3.1,3.1,0,0,1,2.32-.91h10.85a3.1,3.1,0,0,1,3.23,3.23v84a3.13,3.13,0,0,1-.9,2.32,3,3,0,0,1-2.2.91H511.76a4.56,4.56,0,0,1-3.74-2.07L471,182.07v55.54a3.1,3.1,0,0,1-.91,2.32,3.41,3.41,0,0,1-2.32.78Zm111.22,0a3.09,3.09,0,0,1-3.1-3.1V166.18h-23.9a3.07,3.07,0,0,1-3.1-3.1v-9.56a3.45,3.45,0,0,1,.77-2.32,3.14,3.14,0,0,1,2.33-.91H607a3.1,3.1,0,0,1,3.23,3.23v9.56a3,3,0,0,1-.9,2.2,3.16,3.16,0,0,1-2.33.9H583.2v71.43a3,3,0,0,1-.91,2.19,3.1,3.1,0,0,1-2.32.91Zm58.31,0a3.09,3.09,0,0,1-3.1-3.1V153.39a2.72,2.72,0,0,1,.9-2.19,3,3,0,0,1,2.2-.91h12.14a3.09,3.09,0,0,1,3.1,3.1v84.22a3,3,0,0,1-.9,2.19,2.73,2.73,0,0,1-2.2.91Z" transform="translate(-26.42 -23.29)"/><path class="cls-7" d="M665,240.71a3.09,3.09,0,0,1-3.1-3.1V153.52a3.45,3.45,0,0,1,.77-2.32,3.14,3.14,0,0,1,2.33-.91h34.62q15.5,0,24.41,7.36T732.94,179q0,14.07-8.91,21.31t-24.41,7.1H680.37v30.23a3,3,0,0,1-.9,2.19,2.73,2.73,0,0,1-2.2.91Zm34-47.66q7.49,0,11.5-3.49t4-10.59q0-6.72-3.88-10.47T699,164.63H680.11v28.42Zm51.17,47.66a3.11,3.11,0,0,1-3.1-3.1V153.39a2.69,2.69,0,0,1,.91-2.19,3,3,0,0,1,2.19-.91h12a3.11,3.11,0,0,1,3.1,3.1v72H806.2a3.09,3.09,0,0,1,3.23,3.23v9a3.13,3.13,0,0,1-.9,2.32,3.45,3.45,0,0,1-2.33.78Zm66.28,0a2.92,2.92,0,0,1-1.94-.78,2.6,2.6,0,0,1-.78-1.93l.26-1.17,31.13-83.31q.9-3.22,4.52-3.23h14.08a4.44,4.44,0,0,1,4.52,3.23l31.13,83.31a3.83,3.83,0,0,1,.13,1.17,2.6,2.6,0,0,1-.78,1.93,2.44,2.44,0,0,1-1.8.78H885.65a3.82,3.82,0,0,1-2.58-.78,3.47,3.47,0,0,1-1.17-1.68l-6.07-15.75H837.47l-6.07,15.75a3.75,3.75,0,0,1-3.75,2.46Zm54.89-33.07-14.72-39.91L842,207.64ZM944.9,242q-17.7,0-27.65-9.17t-10.46-25.58q-.12-3.74-.13-12t.13-12q.65-16,10.59-25.06T944.9,149q11.88,0,20.4,4t12.92,10.08q4.39,5.94,4.65,11.75v.26a2.48,2.48,0,0,1-.78,1.81,2.91,2.91,0,0,1-1.93.65H966.85a3.79,3.79,0,0,1-1.93-.39,4.57,4.57,0,0,1-1.17-1.68,18,18,0,0,0-6.32-8.14q-4.53-3.48-12.53-3.49-9,0-14.21,4.91t-5.43,15.12c-.08,2.49-.13,6.28-.13,11.36s0,8.79.13,11.37q.78,20.53,19.89,20.54,9.18,0,14.73-4.91t5.55-14.86v-4H949.68a3.13,3.13,0,0,1-2.33-.91,3.4,3.4,0,0,1-.77-2.32V193.3a3.42,3.42,0,0,1,.77-2.32,3.16,3.16,0,0,1,2.33-.9h30.86a2.75,2.75,0,0,1,2.2.9,3.15,3.15,0,0,1,.9,2.32v13.57a35.84,35.84,0,0,1-4.78,18.73,30.7,30.7,0,0,1-13.43,12.14A46.53,46.53,0,0,1,944.9,242Zm58.4-1.29a3.11,3.11,0,0,1-3.1-3.1V153.39a2.69,2.69,0,0,1,.91-2.19,3,3,0,0,1,2.19-.91h12.14a3.09,3.09,0,0,1,3.1,3.1v84.22a3,3,0,0,1-.9,2.19,2.73,2.73,0,0,1-2.2.91Zm30,0a2.94,2.94,0,0,1-1.94-.78,2.63,2.63,0,0,1-.77-1.93l.26-1.17,31.13-83.31c.6-2.15,2.1-3.23,4.52-3.23h14.08a4.45,4.45,0,0,1,4.52,3.23l31.13,83.31a4.26,4.26,0,0,1,.12,1.17,2.59,2.59,0,0,1-.77,1.93,2.48,2.48,0,0,1-1.81.78h-11.24a3.82,3.82,0,0,1-2.58-.78,3.45,3.45,0,0,1-1.16-1.68l-6.07-15.75H1054.3l-6.07,15.75a3.74,3.74,0,0,1-3.74,2.46Zm54.9-33.07-14.73-39.91-14.59,39.91Zm53.74,33.07a3.11,3.11,0,0,1-3.1-3.1V166.18H1114.9a3,3,0,0,1-2.2-.9,3,3,0,0,1-.9-2.2v-9.56a3.4,3.4,0,0,1,.77-2.32,3.13,3.13,0,0,1,2.33-.91h65.87a3.1,3.1,0,0,1,3.23,3.23v9.56a3,3,0,0,1-.9,2.2,3.17,3.17,0,0,1-2.33.9H1157v71.43a3,3,0,0,1-.9,2.19,3.13,3.13,0,0,1-2.33.91Z" transform="translate(-26.42 -23.29)"/></svg>